<svg width="185" height="47" viewBox="0 0 185 47" fill="none" xmlns="http://www.w3.org/2000/svg">
<rect width="185" height="47" rx="4" fill="#E1E1E6"/>
<path d="M22.976 28.024H16.688L15.68 31H11.384L17.48 14.152H22.232L28.328 31H23.984L22.976 28.024ZM21.92 24.856L19.832 18.688L17.768 24.856H21.92ZM34.0543 19.983C34.4376 19.385 34.9666 18.902 35.6413 18.534C36.316 18.166 37.1056 17.982 38.0103 17.982C39.0683 17.982 40.0266 18.2503 40.8853 18.787C41.744 19.3237 42.4186 20.0903 42.9093 21.087C43.4153 22.0837 43.6683 23.2413 43.6683 24.56C43.6683 25.8787 43.4153 27.044 42.9093 28.056C42.4186 29.0527 41.744 29.827 40.8853 30.379C40.0266 30.9157 39.0683 31.184 38.0103 31.184C37.121 31.184 36.3313 31 35.6413 30.632C34.9666 30.264 34.4376 29.7887 34.0543 29.206V37.118H30.1213V18.166H34.0543V19.983ZM39.6663 24.56C39.6663 23.5787 39.3903 22.812 38.8383 22.26C38.3016 21.6927 37.6346 21.409 36.8373 21.409C36.0553 21.409 35.3883 21.6927 34.8363 22.26C34.2996 22.8273 34.0313 23.6017 34.0313 24.583C34.0313 25.5643 34.2996 26.3387 34.8363 26.906C35.3883 27.4733 36.0553 27.757 36.8373 27.757C37.6193 27.757 38.2863 27.4733 38.8383 26.906C39.3903 26.3233 39.6663 25.5413 39.6663 24.56ZM47.7097 16.832C47.0197 16.832 46.4523 16.6327 46.0077 16.234C45.5783 15.82 45.3637 15.314 45.3637 14.716C45.3637 14.1027 45.5783 13.5967 46.0077 13.198C46.4523 12.784 47.0197 12.577 47.7097 12.577C48.3843 12.577 48.9363 12.784 49.3657 13.198C49.8103 13.5967 50.0327 14.1027 50.0327 14.716C50.0327 15.314 49.8103 15.82 49.3657 16.234C48.9363 16.6327 48.3843 16.832 47.7097 16.832ZM49.6647 18.166V31H45.7317V18.166H49.6647Z" fill="#5061FC"/>
<path d="M51.8809 22.552C51.8809 20.888 52.2409 19.408 52.9609 18.112C53.6809 16.8 54.6809 15.784 55.9609 15.064C57.2569 14.328 58.7209 13.96 60.3529 13.96C62.3529 13.96 64.0649 14.488 65.4889 15.544C66.9129 16.6 67.8649 18.04 68.3449 19.864H63.8329C63.4969 19.16 63.0169 18.624 62.3929 18.256C61.7849 17.888 61.0889 17.704 60.3049 17.704C59.0409 17.704 58.0169 18.144 57.2329 19.024C56.4489 19.904 56.0569 21.08 56.0569 22.552C56.0569 24.024 56.4489 25.2 57.2329 26.08C58.0169 26.96 59.0409 27.4 60.3049 27.4C61.0889 27.4 61.7849 27.216 62.3929 26.848C63.0169 26.48 63.4969 25.944 63.8329 25.24H68.3449C67.8649 27.064 66.9129 28.504 65.4889 29.56C64.0649 30.6 62.3529 31.12 60.3529 31.12C58.7209 31.12 57.2569 30.76 55.9609 30.04C54.6809 29.304 53.6809 28.288 52.9609 26.992C52.2409 25.696 51.8809 24.216 51.8809 22.552ZM78.6851 18.028C80.1571 18.028 81.3378 18.5187 82.2271 19.5C83.1165 20.466 83.5611 21.8 83.5611 23.502V31H79.6511V24.031C79.6511 23.1723 79.4288 22.5053 78.9841 22.03C78.5395 21.5547 77.9415 21.317 77.1901 21.317C76.4388 21.317 75.8408 21.5547 75.3961 22.03C74.9515 22.5053 74.7291 23.1723 74.7291 24.031V31H70.7961V13.98H74.7291V19.891C75.1278 19.3237 75.6721 18.8713 76.3621 18.534C77.0521 18.1967 77.8265 18.028 78.6851 18.028ZM85.5122 24.56C85.5122 23.2413 85.7575 22.0837 86.2482 21.087C86.7542 20.0903 87.4365 19.3237 88.2952 18.787C89.1538 18.2503 90.1122 17.982 91.1702 17.982C92.0748 17.982 92.8645 18.166 93.5392 18.534C94.2292 18.902 94.7582 19.385 95.1262 19.983V18.166H99.0592V31H95.1262V29.183C94.7428 29.781 94.2062 30.264 93.5162 30.632C92.8415 31 92.0518 31.184 91.1472 31.184C90.1045 31.184 89.1538 30.9157 88.2952 30.379C87.4365 29.827 86.7542 29.0527 86.2482 28.056C85.7575 27.044 85.5122 25.8787 85.5122 24.56ZM95.1262 24.583C95.1262 23.6017 94.8502 22.8273 94.2982 22.26C93.7615 21.6927 93.1022 21.409 92.3202 21.409C91.5382 21.409 90.8712 21.6927 90.3192 22.26C89.7825 22.812 89.5142 23.5787 89.5142 24.56C89.5142 25.5413 89.7825 26.3233 90.3192 26.906C90.8712 27.4733 91.5382 27.757 92.3202 27.757C93.1022 27.757 93.7615 27.4733 94.2982 26.906C94.8502 26.3387 95.1262 25.5643 95.1262 24.583ZM105.838 13.98V31H101.905V13.98H105.838ZM112.621 13.98V31H108.688V13.98H112.621ZM127.569 24.376C127.569 24.744 127.546 25.1273 127.5 25.526H118.599C118.66 26.3233 118.913 26.9367 119.358 27.366C119.818 27.78 120.378 27.987 121.037 27.987C122.018 27.987 122.701 27.573 123.084 26.745H127.27C127.055 27.5883 126.664 28.3473 126.097 29.022C125.545 29.6967 124.847 30.2257 124.004 30.609C123.161 30.9923 122.218 31.184 121.175 31.184C119.918 31.184 118.798 30.9157 117.817 30.379C116.836 29.8423 116.069 29.0757 115.517 28.079C114.965 27.0823 114.689 25.917 114.689 24.583C114.689 23.249 114.957 22.0837 115.494 21.087C116.046 20.0903 116.813 19.3237 117.794 18.787C118.775 18.2503 119.902 17.982 121.175 17.982C122.417 17.982 123.521 18.2427 124.487 18.764C125.453 19.2853 126.204 20.029 126.741 20.995C127.293 21.961 127.569 23.088 127.569 24.376ZM123.544 23.341C123.544 22.6663 123.314 22.1297 122.854 21.731C122.394 21.3323 121.819 21.133 121.129 21.133C120.47 21.133 119.91 21.3247 119.45 21.708C119.005 22.0913 118.729 22.6357 118.622 23.341H123.544ZM137.464 18.028C138.966 18.028 140.162 18.5187 141.052 19.5C141.956 20.466 142.409 21.8 142.409 23.502V31H138.499V24.031C138.499 23.1723 138.276 22.5053 137.832 22.03C137.387 21.5547 136.789 21.317 136.038 21.317C135.286 21.317 134.688 21.5547 134.244 22.03C133.799 22.5053 133.577 23.1723 133.577 24.031V31H129.644V18.166H133.577V19.868C133.975 19.3007 134.512 18.856 135.187 18.534C135.861 18.1967 136.62 18.028 137.464 18.028ZM150.018 17.982C150.922 17.982 151.712 18.166 152.387 18.534C153.077 18.902 153.606 19.385 153.974 19.983V18.166H157.907V30.977C157.907 32.1577 157.669 33.2233 157.194 34.174C156.734 35.14 156.021 35.9067 155.055 36.474C154.104 37.0413 152.916 37.325 151.49 37.325C149.588 37.325 148.047 36.8727 146.867 35.968C145.686 35.0787 145.011 33.8673 144.843 32.334H148.73C148.852 32.8247 149.144 33.208 149.604 33.484C150.064 33.7753 150.631 33.921 151.306 33.921C152.118 33.921 152.762 33.6833 153.238 33.208C153.728 32.748 153.974 32.0043 153.974 30.977V29.16C153.59 29.758 153.061 30.2487 152.387 30.632C151.712 31 150.922 31.184 150.018 31.184C148.96 31.184 148.001 30.9157 147.143 30.379C146.284 29.827 145.602 29.0527 145.096 28.056C144.605 27.044 144.36 25.8787 144.36 24.56C144.36 23.2413 144.605 22.0837 145.096 21.087C145.602 20.0903 146.284 19.3237 147.143 18.787C148.001 18.2503 148.96 17.982 150.018 17.982ZM153.974 24.583C153.974 23.6017 153.698 22.8273 153.146 22.26C152.609 21.6927 151.95 21.409 151.168 21.409C150.386 21.409 149.719 21.6927 149.167 22.26C148.63 22.812 148.362 23.5787 148.362 24.56C148.362 25.5413 148.63 26.3233 149.167 26.906C149.719 27.4733 150.386 27.757 151.168 27.757C151.95 27.757 152.609 27.4733 153.146 26.906C153.698 26.3387 153.974 25.5643 153.974 24.583ZM172.85 24.376C172.85 24.744 172.827 25.1273 172.781 25.526H163.88C163.942 26.3233 164.195 26.9367 164.639 27.366C165.099 27.78 165.659 27.987 166.318 27.987C167.3 27.987 167.982 27.573 168.365 26.745H172.551C172.337 27.5883 171.946 28.3473 171.378 29.022C170.826 29.6967 170.129 30.2257 169.285 30.609C168.442 30.9923 167.499 31.184 166.456 31.184C165.199 31.184 164.08 30.9157 163.098 30.379C162.117 29.8423 161.35 29.0757 160.798 28.079C160.246 27.0823 159.97 25.917 159.97 24.583C159.97 23.249 160.239 22.0837 160.775 21.087C161.327 20.0903 162.094 19.3237 163.075 18.787C164.057 18.2503 165.184 17.982 166.456 17.982C167.698 17.982 168.802 18.2427 169.768 18.764C170.734 19.2853 171.486 20.029 172.022 20.995C172.574 21.961 172.85 23.088 172.85 24.376ZM168.825 23.341C168.825 22.6663 168.595 22.1297 168.135 21.731C167.675 21.3323 167.1 21.133 166.41 21.133C165.751 21.133 165.191 21.3247 164.731 21.708C164.287 22.0913 164.011 22.6357 163.903 23.341H168.825Z" fill="#DE0F0F"/>
</svg>
